<?xml version="1.0" encoding="UTF-8" standalone="no"?>
<!-- Created with Inkscape (http://www.inkscape.org/) -->

<svg
   xmlns:dc="http://purl.org/dc/elements/1.1/"
   xmlns:cc="http://creativecommons.org/ns#"
   xmlns:rdf="http://www.w3.org/1999/02/22-rdf-syntax-ns#"
   xmlns:svg="http://www.w3.org/2000/svg"
   xmlns="http://www.w3.org/2000/svg"
   xmlns:sodipodi="http://sodipodi.sourceforge.net/DTD/sodipodi-0.dtd"
   xmlns:inkscape="http://www.inkscape.org/namespaces/inkscape"
   width="297mm"
   height="210mm"
   viewBox="0 0 297 210"
   version="1.1"
   id="svg4061"
   inkscape:version="0.92.4 (5da689c313, 2019-01-14)"
   sodipodi:docname="mylogo.svg">
  <defs
     id="defs4055">
    <inkscape:path-effect
       effect="bspline"
       id="path-effect66"
       is_visible="true"
       weight="33.333333"
       steps="2"
       helper_size="0"
       apply_no_weight="true"
       apply_with_weight="true"
       only_selected="false" />
    <inkscape:path-effect
       effect="bspline"
       id="path-effect81"
       is_visible="true"
       weight="33.333333"
       steps="2"
       helper_size="0"
       apply_no_weight="true"
       apply_with_weight="true"
       only_selected="false" />
    <inkscape:path-effect
       effect="bspline"
       id="path-effect91"
       is_visible="true"
       weight="33.333333"
       steps="2"
       helper_size="0"
       apply_no_weight="true"
       apply_with_weight="true"
       only_selected="false" />
  </defs>
  <sodipodi:namedview
     id="base"
     pagecolor="#ffffff"
     bordercolor="#666666"
     borderopacity="1.0"
     inkscape:pageopacity="0.0"
     inkscape:pageshadow="2"
     inkscape:zoom="0.35"
     inkscape:cx="400"
     inkscape:cy="560"
     inkscape:document-units="mm"
     inkscape:current-layer="layer1"
     showgrid="false"
     inkscape:window-width="1920"
     inkscape:window-height="1001"
     inkscape:window-x="-9"
     inkscape:window-y="-9"
     inkscape:window-maximized="1" />
  <metadata
     id="metadata4058">
    <rdf:RDF>
      <cc:Work
         rdf:about="">
        <dc:format>image/svg+xml</dc:format>
        <dc:type
           rdf:resource="http://purl.org/dc/dcmitype/StillImage" />
        <dc:title></dc:title>
      </cc:Work>
    </rdf:RDF>
  </metadata>
  <g
     inkscape:label="Layer 1"
     inkscape:groupmode="layer"
     id="layer1"
     transform="translate(0,-87)">
    <g
       id="g4053"
       transform="matrix(1.9397592,-0.37416956,0.34203186,2.122021,-65.487149,136.8573)">
      <g
         transform="translate(5.3453905,-3.3408691)"
         id="g203">
        <g
           id="g183">
          <g
             transform="matrix(0.72806126,0,0,0.840488,8.8204781,1.211774)"
             id="g77">
            <path
               style="fill:none;stroke:#000000;stroke-width:0.26458332px;stroke-linecap:butt;stroke-linejoin:miter;stroke-opacity:1"
               d="m 92.074351,84.787993 c 0,0 2.53906,-50.914844 -8.418989,-61.605624 C 72.69731,12.491588 82.452648,12.491588 82.452648,12.491588 c 0,0 91.406182,-2.9399652 81.517202,3.875408 -9.88897,6.815373 -14.16528,9.220798 -14.16528,9.220798 0,0 -3.20724,-9.354433 -29.93419,-9.087164 -26.726951,0.26727 -21.247925,35.947753 -21.247925,35.947753 0,0 12.160765,0.801806 13.630745,-0.133636 1.46998,-0.935442 2.00452,-5.078122 2.00452,-4.543581 0,0.534538 0.13364,12.828936 0.13364,12.828936"
               id="path32"
               inkscape:connector-curvature="0" />
            <path
               style="fill:none;stroke:#000000;stroke-width:0.26458332px;stroke-linecap:butt;stroke-linejoin:miter;stroke-opacity:1"
               d="m 114.39136,60.600102 c -0.31185,-1.871101 -0.62367,-3.741989 -3.20684,-4.610519 -2.58317,-0.86853 -7.43912,-0.73488 -12.294796,-0.601238"
               id="path64"
               inkscape:connector-curvature="0"
               inkscape:path-effect="#path-effect66"
               inkscape:original-d="m 114.39136,60.600102 c -0.31155,-1.871151 -0.62337,-3.742039 -0.93545,-5.612661 -4.85457,0.133355 -9.71052,0.267007 -14.566186,0.400904" />
            <path
               style="fill:none;stroke:#000000;stroke-width:0.26458332px;stroke-linecap:butt;stroke-linejoin:miter;stroke-opacity:1"
               d="m 98.889724,55.388345 c 0,0 -2.791431,25.422405 1.603616,33.542327 4.39505,8.11992 4.39505,8.11992 4.39505,8.11992 v 0"
               id="path68"
               inkscape:connector-curvature="0" />
            <path
               inkscape:original-d="m 142.80015,95.939809 20.55747,-0.47699 c 0,0 -3.05878,0.10568 -4.58872,0.158994 3.85584,-11.768967 7.70941,-23.531817 11.56358,-35.297252"
               inkscape:path-effect="#path-effect81"
               inkscape:connector-curvature="0"
               id="path79"
               d="m 142.80015,95.939809 c 0,0 20.55747,-0.47699 20.55747,-0.47699 -1.52957,0.053 -3.05877,0.105983 -1.89594,-5.752033 1.16283,-5.858017 5.0164,-17.620865 8.8708,-29.386225"
               style="fill:none;stroke:#000000;stroke-width:0.33823049px;stroke-linecap:butt;stroke-linejoin:miter;stroke-opacity:1" />
            <path
               inkscape:connector-curvature="0"
               id="path83"
               d="m 170.33248,60.324561 c 0,0 13.5826,34.50227 32.48813,34.50227 18.90552,0 14.3168,0 14.3168,0"
               style="fill:none;stroke:#000000;stroke-width:0.33823049px;stroke-linecap:butt;stroke-linejoin:miter;stroke-opacity:1" />
            <path
               inkscape:connector-curvature="0"
               id="path87"
               d="m 176.02249,55.872654 c 0,0 16.1523,23.6905 28.63361,31.322338 12.48131,7.631839 12.48131,7.631839 12.48131,7.631839"
               style="fill:none;stroke:#000000;stroke-width:0.33823049px;stroke-linecap:butt;stroke-linejoin:miter;stroke-opacity:1" />
            <path
               inkscape:original-d="m 142.80015,95.939809 24.41199,-83.155242 19.82327,-0.317994 c 0,0 -3.05878,0.105683 -4.58872,0.158997 -3.05954,12.404482 -6.11793,24.803161 -9.17743,37.205214"
               inkscape:path-effect="#path-effect91"
               inkscape:connector-curvature="0"
               id="path89"
               d="m 142.80015,95.939809 c 0,0 24.41199,-83.155242 24.41199,-83.155242 0,0 19.82327,-0.317994 19.82327,-0.317994 -1.52957,0.053 -3.05877,0.105985 -5.35365,6.334699 -2.29487,6.228715 -5.35326,18.627394 -8.4125,31.029512"
               style="fill:none;stroke:#000000;stroke-width:0.33823049px;stroke-linecap:butt;stroke-linejoin:miter;stroke-opacity:1" />
            <path
               inkscape:connector-curvature="0"
               id="path93"
               d="m 173.26926,49.830784 c 0,0 19.03275,-37.887454 32.79034,-37.887454 13.75759,0 13.75759,-0.112428 13.75759,-0.112428 0,0 -10.97608,2.503275 -27.38539,23.272513 -16.40931,20.769239 -16.40931,20.769239 -16.40931,20.769239"
               style="fill:none;stroke:#000000;stroke-width:0.33823049px;stroke-linecap:butt;stroke-linejoin:miter;stroke-opacity:1" />
          </g>
          <path
             inkscape:connector-curvature="0"
             id="path97"
             d="m 75.856244,72.475063 c 0,0 0.02246,3.408865 -1.300443,6.81065 -1.322916,3.401785 -1.417409,3.685267 -1.417409,3.685267 l 12.047259,-0.189349"
             style="fill:none;stroke:#000000;stroke-width:0.26458332px;stroke-linecap:butt;stroke-linejoin:miter;stroke-opacity:1" />
        </g>
        <g
           id="g171"
           transform="translate(7.279011,-1.050719)">
          <path
             sodipodi:nodetypes="ccsc"
             inkscape:connector-curvature="0"
             id="path99"
             d="m 7.4927064,83.876779 14.9968766,-0.05535 c 0,0 -7.46503,-22.962055 7.843007,-23.245535 15.308034,-0.283482 3.354538,-0.0945 3.354538,-0.0945"
             style="fill:none;stroke:#000000;stroke-width:0.26458332px;stroke-linecap:butt;stroke-linejoin:miter;stroke-opacity:1" />
          <path
             inkscape:connector-curvature="0"
             id="path99-1"
             d="m 65.859383,84.0217 -14.93006,-0.188986 c 0,0 7.46503,-22.962054 -7.843007,-23.245534 -15.308035,-0.283482 -3.354538,-0.0945 -3.354538,-0.0945"
             style="fill:none;stroke:#000000;stroke-width:0.26458332px;stroke-linecap:butt;stroke-linejoin:miter;stroke-opacity:1" />
          <path
             sodipodi:nodetypes="csccc"
             inkscape:connector-curvature="0"
             id="path144"
             d="m 7.4927064,83.876779 c 0,0 17.5482156,-59.208625 18.7766386,-65.16175 1.228422,-5.953125 1.322915,-6.614583 1.322915,-6.614583 l 14.835566,-0.09449 c 0,0 3.026778,17.186633 13.229167,44.601191"
             style="fill:none;stroke:#000000;stroke-width:0.26458332px;stroke-linecap:butt;stroke-linejoin:miter;stroke-opacity:1" />
          <path
             inkscape:connector-curvature="0"
             id="path146"
             d="M 55.656993,56.607146 65.859381,84.021699"
             style="fill:none;stroke:#000000;stroke-width:0.26458332px;stroke-linecap:butt;stroke-linejoin:miter;stroke-opacity:1" />
          <path
             sodipodi:nodetypes="csc"
             inkscape:connector-curvature="0"
             id="path148"
             d="m 35.001937,23.69947 c 0,0 -16.953171,30.124309 -4.574854,30.26184 l 8.504463,0.09449"
             style="fill:none;stroke:#000000;stroke-width:0.26458332px;stroke-linecap:butt;stroke-linejoin:miter;stroke-opacity:1" />
          <path
             sodipodi:nodetypes="csc"
             inkscape:connector-curvature="0"
             id="path148-1"
             d="m 35.001937,23.69947 c 0,0 16.78116,30.261848 4.402078,30.261839 l -5.669642,-4e-6"
             style="fill:none;stroke:#000000;stroke-width:0.26458332px;stroke-linecap:butt;stroke-linejoin:miter;stroke-opacity:1" />
        </g>
      </g>
      <g
         id="g4003">
        <path
           style="fill:#ffe680;fill-opacity:1;stroke-width:0.50507629"
           d="m 260.44451,299.87508 c -18.16308,-0.12986 -19.34917,-0.19324 -19.02263,-1.01633 0.19154,-0.48281 1.12452,-4.17346 2.07328,-8.20144 4.69818,-19.94607 5.45716,-37.82284 2.18962,-51.57356 -3.16147,-13.30433 -11.86347,-22.72264 -23.95316,-25.92485 -9.62424,-2.5492 -58.85195,-2.76832 -69.2109,-0.30808 -14.6769,3.48576 -23.12739,13.40705 -26.34323,30.92823 -1.17321,6.39214 -1.14971,21.62161 0.0462,29.9582 0.96741,6.74357 2.90451,16.34616 4.37407,21.68312 0.53012,1.92521 0.83454,3.62984 0.67649,3.78808 -0.15805,0.15823 -12.4599,0.36354 -27.33745,0.45624 -22.779233,0.14193 -27.008064,0.059 -26.783898,-0.52515 1.048034,-2.73113 42.552738,-144.69101 54.162618,-185.25413 13.77533,-48.128879 15.53107,-54.860328 19.30782,-74.025612 l 1.91279,-9.706563 13.13198,-0.343443 c 7.22259,-0.188894 19.60249,-0.271654 27.51088,-0.183911 l 14.37889,0.159533 0.42546,2.272843 c 4.78375,25.555211 18.59885,75.877243 31.19861,113.642163 9.31821,27.92918 11.88656,35.01224 42.80967,118.06158 l 13.58758,36.49176 -7.88193,-0.12009 c -4.33506,-0.0661 -16.59882,-0.18241 -27.2528,-0.25859 z M 201.43603,187.54695 c 1.43985,-0.3051 3.42363,-0.96214 4.40839,-1.46009 2.6606,-1.34533 5.74516,-4.97491 7.1005,-8.35511 1.09525,-2.7315 1.19734,-3.70853 1.18323,-11.3232 -0.0165,-8.89252 -0.48192,-12.11996 -3.24479,-22.50023 -1.84614,-6.93608 -5.78046,-18.37774 -9.43268,-27.4318 -6.41494,-15.903 -19.96012,-43.616737 -21.4589,-43.905375 -0.99681,-0.191967 -14.05219,25.704783 -19.80693,39.289165 -16.94594,40.00188 -19.82847,65.06795 -8.39387,72.99213 4.06516,2.81715 5.07203,2.96923 21.95839,3.31652 17.2925,0.35565 23.75847,0.21038 27.68666,-0.62201 z"
           id="path3946"
           inkscape:connector-curvature="0"
           transform="scale(0.26458333)" />
        <path
           style="fill:#ffe680;fill-opacity:1;stroke-width:0.50507629"
           d="m 297.99052,299.37329 c 2.57108,-6.41502 6.33235,-16.69078 6.98026,-19.07004 2.57239,-9.44629 3.08862,-19.51648 3.05525,-59.59901 -0.0474,-56.8958 -3.48903,-97.08704 -10.79335,-126.042855 -3.61006,-14.311066 -7.65173,-22.974837 -14.67538,-31.458389 -5.6828,-6.863998 -8.13337,-10.464785 -10.47448,-15.390861 -1.49921,-3.154584 -1.84781,-4.470521 -1.85501,-7.002549 -0.014,-4.918343 2.43787,-7.257753 8.63288,-8.236934 9.42901,-1.490348 129.65748,-2.66167 160.69146,-1.565532 32.74004,1.156398 50.74393,2.925559 60.34609,5.929938 4.47091,1.398883 6.69325,2.974972 6.15877,4.3678 -0.38479,1.00276 -6.08962,5.702873 -17.62704,14.52262 -9.33693,7.137594 -21.62262,16.114781 -22.06717,16.124541 -0.18195,0.004 -0.94162,-1.034997 -1.68816,-2.308871 -1.78634,-3.048167 -6.82229,-8.108288 -10.60793,-10.658857 -14.00532,-9.436048 -33.72811,-14.301644 -61.36677,-15.139123 -15.17988,-0.459966 -24.07361,0.871898 -32.76593,4.906797 -7.23423,3.358065 -14.35833,9.416522 -19.69839,16.751832 -11.70676,16.08086 -18.06366,44.327283 -17.02538,75.650933 0.31797,9.59267 0.92723,17.46885 1.38685,17.92848 0.49278,0.49278 24.52317,1.34285 29.39157,1.03972 8.79688,-0.54773 9.91039,-1.22197 12.19905,-7.38661 l 1.20578,-3.24783 0.018,13.63706 0.018,13.63706 -1.131,-1.99681 c -1.46473,-2.58601 -4.7969,-5.1031 -8.02437,-6.06156 -4.29648,-1.27592 -13.06513,-1.92274 -23.1307,-1.70624 -5.26471,0.11324 -9.68682,0.32051 -9.82691,0.4606 -0.45933,0.45934 -1.78189,20.61806 -2.35009,35.82051 -0.76624,20.50135 -0.0994,39.62247 1.85817,53.28555 1.44053,10.05415 2.81769,14.1394 9.78482,29.02612 3.57594,7.64072 6.46086,13.92044 6.41095,13.95494 -0.0499,0.0345 -9.83207,0.20946 -21.73811,0.3888 -20.5199,0.30909 -21.62884,0.27986 -21.29174,-0.56123 z"
           id="path3948"
           inkscape:connector-curvature="0"
           transform="scale(0.26458333)" />
        <path
           style="fill:#ffe680;fill-opacity:1;stroke-width:0.50507629"
           d="m 447.75325,295.24024 c 0,-1.02142 66.25494,-261.384609 66.60358,-261.733247 0.17546,-0.175467 10.97833,-0.478086 24.00637,-0.672487 l 23.68734,-0.353455 -1.57517,1.988815 c -6.24254,7.881845 -12.37744,29.941439 -26.36877,94.815574 -2.72328,12.6271 -4.28495,20.89209 -4.00189,21.17953 0.25532,0.25928 0.56149,0.37292 0.68038,0.25254 0.11889,-0.12038 1.56972,-3.17356 3.22406,-6.78486 4.38237,-9.56634 13.6446,-27.96362 19.19843,-38.13326 21.70091,-39.736601 41.73022,-65.02147 57.39241,-72.451803 5.50372,-2.611032 7.29357,-2.804559 25.93815,-2.804559 h 17.00923 l -3.79575,2.163104 c -17.63282,10.048493 -38.69305,30.972106 -59.0694,58.686228 -4.04288,5.498765 -52.99975,76.88707 -53.34522,77.78732 -0.11691,0.30466 2.98761,5.64214 6.89892,11.86107 23.70251,37.68659 48.23759,68.90748 65.45537,83.29196 2.53373,2.11679 12.18368,9.18989 21.44435,15.718 l 16.83758,11.86929 -20.58353,0.13196 c -22.52392,0.14439 -23.59336,0.0446 -30.90885,-2.88468 -23.73231,-9.50289 -49.75916,-45.28125 -69.82736,-95.98969 -1.37423,-3.4724 -2.77391,-7.16577 -3.1104,-8.20749 -0.33649,-1.04172 -0.93511,-1.89404 -1.33025,-1.89404 -0.39514,0 -0.71844,0.13445 -0.71844,0.29878 0,0.16433 -2.25648,8.28974 -5.01439,18.05648 -9.87785,34.98087 -15.56753,56.77875 -18.47778,70.7907 -1.74324,8.39315 -2.27571,18.50152 -1.09487,20.78501 l 0.7938,1.53504 -11.21062,0.32826 c -32.24095,0.94406 -38.73728,1.00609 -38.73728,0.36991 z"
           id="path3950"
           inkscape:connector-curvature="0"
           transform="scale(0.26458333)" />
      </g>
    </g>
  </g>
</svg>
